<svg xmlns="http://www.w3.org/2000/svg" width="27" height="22" viewBox="0 0 27 22"><g><g><path fill="#fff" d="M26.352 13.83c0 4.472-3.584 8.248-7.99 8.248-.912 0-1.79-.157-2.608-.444l-.009.003a7.84 7.84 0 0 1-2.599.441 7.82 7.82 0 0 1-2.661-.465 7.878 7.878 0 0 1-2.524.413c-4.41 0-8-3.951-8-8.197 0-1.79 1.207-4.444 3.687-7.845A59.847 59.847 0 0 1 7.2 1.585l.76-.84.76.84c.039.044.818.906 1.856 2.193a55.456 55.456 0 0 1 1.808-2.14l.761-.843.761.844c.04.043.813.903 1.846 2.187a55.517 55.517 0 0 1 1.85-2.188l.76-.841.76.84a59.75 59.75 0 0 1 3.549 4.4c2.476 3.4 3.68 6.003 3.68 7.792zm-24.328 0c0 3.021 2.549 5.99 5.725 6.103-1.585-1.483-2.58-3.746-2.58-6.104 0-1.79 1.202-4.39 3.674-7.791.143-.196.285-.389.427-.578A61.654 61.654 0 0 0 7.96 3.87a58.803 58.803 0 0 0-2.665 3.37c-2.847 3.906-3.272 5.854-3.272 6.59zm10.992 6.158c-1.622-1.485-2.642-3.772-2.642-6.159 0-1.79 1.203-4.391 3.68-7.792.13-.18.26-.355.39-.529a62.115 62.115 0 0 0-1.298-1.583c-.66.777-1.66 2-2.653 3.365-2.838 3.907-3.264 5.803-3.264 6.539 0 3.277 2.585 6.088 5.787 6.16zM24.29 13.83c0-.737-.426-2.636-3.278-6.552a58.654 58.654 0 0 0-2.65-3.354c-.66.778-1.664 2-2.659 3.368-2.843 3.907-3.268 5.803-3.268 6.538 0 3.321 2.66 6.16 5.928 6.16s5.927-2.839 5.927-6.16z"/></g></g></svg>