<svg xmlns="http://www.w3.org/2000/svg" width="40" height="43" viewBox="0 0 40 43"><g><g><path fill="#c92535" d="M32.495 43H0v-2.53h2.505v-5.045H4.98V12.592h-2.48V0h27.496v12.606h-2.476V30.37c.742-.06 1.476-.03 2.164-.193 1.719-.406 2.81-1.92 2.81-3.784.003-6.73.004-13.462-.005-20.193 0-.304.084-.516.3-.73 1.59-1.585 3.166-3.182 4.747-4.774.104-.105.213-.205.299-.287l1.754 1.775c-.085.09-.186.201-.292.308-1.237 1.248-2.455 2.515-3.722 3.73-.44.422-.644.849-.594 1.456.023.279.104.414.344.532 1.443.715 2.876 1.45 4.32 2.164.256.126.36.266.357.567-.014 2.07-.007 4.142-.006 6.213v.493h-5v.502c0 2.799.012 5.597-.005 8.396-.012 1.926-.756 3.532-2.205 4.79-1.136.987-2.47 1.471-3.968 1.5-.437.009-.874.002-1.297.002v2.618h2.484v5.03h2.49V43zm-7.516-30.372H7.532v22.79h7.465c0-.985.007-1.948-.01-2.91-.002-.101-.13-.228-.231-.294-.547-.357-1.119-.677-1.654-1.05-1.098-.767-2.042-1.684-2.597-2.94-.767-1.733-.591-3.5-.113-5.256.622-2.28 1.935-4.163 3.48-5.893.757-.848 1.563-1.653 2.343-2.475 1.29 1.092 3.413 3.548 4.335 4.993.818 1.28 1.442 2.645 1.738 4.145.35 1.772.36 3.508-.631 5.113-.723 1.168-1.752 2.009-2.886 2.737-.418.27-1.012.441-1.214.824-.214.406-.057 1.01-.06 1.527-.002.497 0 .994 0 1.479h7.482v-22.79zm-19.96-2.579h22.443V2.541H5.02v7.508zm22.457 27.94H5.033v2.47h22.443v-2.47zm-9.972-15.293v6.746c.473-.373.888-.67 1.268-1.007.853-.753 1.266-1.702 1.225-2.859-.052-1.476-.5-2.823-1.233-4.087-.694-1.198-1.555-2.266-2.562-3.331-.689.885-1.38 1.705-1.996 2.58-.911 1.293-1.508 2.723-1.68 4.323-.201 1.856.82 3.665 2.48 4.279v-6.644h2.498zM35.02 10.869v4.217h2.472c0-.938.004-1.847-.005-2.755-.001-.093-.056-.233-.127-.27-.76-.399-1.526-.78-2.34-1.192zM12.49 5.074v2.454h-2.464V5.074h2.464zM17.47 7.54h-2.45V5.07h2.45V7.54zm2.55-2.482h2.447v2.474h-2.447V5.057z"/></g></g></svg>