<svg xmlns="http://www.w3.org/2000/svg" width="43" height="43" viewBox="0 0 43 43"><g><g><path fill="#c92535" d="M41.66 10.162H43v16.899L30.402 39.658V43H12.598v-3.342L0 27.061V10.162h1.26a6.306 6.306 0 0 1 6.298 6.299v5.56l.305.305c2.373-1.575 5.716-1.41 7.928.803 3.094 3.094 4.8 4.773 5.692 5.64l5.641-5.64c2.188-2.187 5.595-2.399 8.011-.802l.306-.306v-5.639c0-3.43 2.79-6.22 6.22-6.22zM20.24 40.48v-9.406c-.684-.658-2.388-2.322-6.23-6.164a3.781 3.781 0 0 0-4.302-.74l5.04 5.041-1.781 1.782-7.928-7.928v-6.604a3.786 3.786 0 0 0-2.52-3.564v13.12l12.598 12.598v1.865zm20.24-27.605a3.707 3.707 0 0 0-2.52 3.507v6.683l-7.927 7.927-1.781-1.781 5.037-5.038c-1.376-.652-3.183-.463-4.383.737l-6.146 6.147v9.423h5.123v-1.865L40.48 26.017zm-30.402-1.453C10.078 5.155 15.231 0 21.5 0c6.267 0 11.422 5.153 11.422 11.422 0 6.252-5.124 11.338-11.422 11.338-6.298 0-11.422-5.086-11.422-11.338zm20.233 1.259H26.54c-.695 0-1.26.566-1.26 1.26a3.784 3.784 0 0 1-3.78 3.78c-.694 0-1.259.565-1.259 1.26v1.17c.412.059.832.09 1.26.09 4.477 0 8.192-3.292 8.811-7.56zm-11.33-2.519c-.695 0-1.26.565-1.26 1.26a3.701 3.701 0 0 1-1.17 2.692 3.885 3.885 0 0 1-2.694 1.087h-.4a8.92 8.92 0 0 0 4.264 4.204v-.425a3.784 3.784 0 0 1 3.779-3.779c.695 0 1.26-.565 1.26-1.26a3.784 3.784 0 0 1 3.779-3.779h3.774a8.922 8.922 0 0 0-7.553-7.553v3.774a3.784 3.784 0 0 1-3.78 3.779zm-6.292 2.52h1.168c.716 0 1.344-.59 1.344-1.26a3.784 3.784 0 0 1 3.78-3.78c.694 0 1.26-.565 1.26-1.26V2.61c-4.315.614-7.643 4.332-7.643 8.813 0 .428.031.848.09 1.26z"/></g></g></svg>