<svg xmlns="http://www.w3.org/2000/svg" width="28" height="43" viewBox="0 0 28 43"><g><g><path fill="#c92535" d="M5.098 43v-5.093c-.597-.247-1.197-.426-1.726-.727C1.217 35.954.04 34.088.024 31.624-.014 25.677.003 19.73.016 13.781.023 10.39 2.862 7.589 6.283 7.56c.435-.004.87 0 1.332 0V2.53H5.098V0h17.803v2.515h-2.523v5.043c.367 0 .728-.002 1.089 0 3.766.022 6.518 2.754 6.52 6.48.003 5.766-.03 11.532.013 17.297.025 3.246-2.187 5.853-4.985 6.47-.026.006-.048.026-.114.062V43H5.098zm-.017-12.662H2.556c0 .464-.007.883.002 1.302a3.885 3.885 0 0 0 3.893 3.799c5.03.008 10.06.006 15.09 0 1.71-.002 3.234-1.066 3.69-2.687.214-.762.2-1.587.298-2.442h-2.597v-2.525h2.483V17.63h-2.488v-2.529h2.517c0-.45.005-.856-.001-1.26-.035-2.102-1.688-3.754-3.813-3.76-5.087-.012-10.173-.014-15.26.012a3.901 3.901 0 0 0-1.592.352c-1.89.89-2.44 2.555-2.168 4.683h2.455v2.528H2.587v10.155h2.494v2.526zm12.698-22.79V2.554h-7.57v4.973h2.528V5.063h2.55v2.485h2.492zm2.546 32.915v-2.468H7.665v2.468h12.66zm-5.054-7.559h-2.545c0-.87-.024-1.734.01-2.594.016-.38-.138-.547-.442-.746-.916-.598-1.857-1.183-2.676-1.898-1.6-1.397-2.141-3.22-1.942-5.301.27-2.825 1.607-5.152 3.421-7.247.908-1.049 1.894-2.03 2.915-3.117 1.076 1.169 2.135 2.252 3.116 3.4 1.447 1.696 2.554 3.585 3.011 5.792.367 1.771.372 3.505-.622 5.115-.687 1.112-1.666 1.927-2.749 2.632-.4.26-.813.505-1.234.732-.201.108-.272.232-.269.46.015.908.006 1.817.006 2.772zm-.004-6.11l.112.09c.508-.432 1.04-.84 1.517-1.305.584-.57.897-1.295.905-2.11a8.88 8.88 0 0 0-.13-1.626c-.327-1.847-1.311-3.374-2.472-4.803-.376-.464-.782-.905-1.233-1.424-.717.907-1.42 1.729-2.045 2.604-.927 1.295-1.534 2.725-1.709 4.325-.202 1.848.874 3.713 2.53 4.272v-6.635h2.525v6.612z"/></g></g></svg>